HIERARCHY
ROOT hip
{
  OFFSET 0 0 0
  CHANNELS 6 Xposition Yposition Zposition Zrotation Yrotation Xrotation
  JOINT abdomen
  {
    OFFSET 0 20.6881 -0.73152
    CHANNELS 3 Zrotation Xrotation Yrotation
    JOINT chest
    {
      OFFSET 0 11.7043 -0.48768
      CHANNELS 3 Zrotation Xrotation Yrotation
      JOINT neck
      {
        OFFSET 0 22.1894 -2.19456
        CHANNELS 3 Zrotation Xrotation Yrotation
        JOINT head
        {
          OFFSET -0.24384 7.07133 1.2192
          CHANNELS 3 Zrotation Xrotation Yrotation
          JOINT leftEye
          {
            OFFSET 4.14528 8.04674 8.04672
            CHANNELS 3 Zrotation Xrotation Yrotation
            End Site
            {
              OFFSET 1 0 0
            }
          }
          JOINT rightEye
          {
            OFFSET -3.6576 8.04674 8.04672
            CHANNELS 3 Zrotation Xrotation Yrotation
            End Site
            {
              OFFSET 1 0 0
            }
          }
        }
      }
      JOINT rCollar
      {
        OFFSET -2.68224 19.2634 -4.8768
        CHANNELS 3 Zrotation Xrotation Yrotation
        JOINT rShldr
        {
          OFFSET -8.77824 -1.95073 1.46304
          CHANNELS 3 Zrotation Xrotation Yrotation
          JOINT rForeArm
          {
            OFFSET -28.1742 -1.7115 0.48768
            CHANNELS 3 Zrotation Xrotation Yrotation
            JOINT rHand
            {
              OFFSET -22.5879 0.773209 7.07136
              CHANNELS 3 Zrotation Xrotation Yrotation
              JOINT rThumb1
              {
                OFFSET -1.2192 -0.487915 3.41376
                CHANNELS 3 Zrotation Xrotation Yrotation
                JOINT rThumb2
                {
                  OFFSET -3.37035 -0.52449 3.41376
                  CHANNELS 3 Zrotation Xrotation Yrotation
                  End Site
                  {
                    OFFSET -1.78271 -1.18214 1.43049
                  }
                }
              }
              JOINT rIndex1
              {
                OFFSET -7.75947 0.938293 5.60832
                CHANNELS 3 Zrotation Xrotation Yrotation
                JOINT rIndex2
                {
                  OFFSET -2.54057 -0.884171 1.56538
                  CHANNELS 3 Zrotation Xrotation Yrotation
                  End Site
                  {
                    OFFSET -1.62519 -0.234802 1.16502
                  }
                }
              }
              JOINT rMid1
              {
                OFFSET -8.24714 1.18213 3.41376
                CHANNELS 3 Zrotation Xrotation Yrotation
                JOINT rMid2
                {
                  OFFSET -3.10165 -0.590103 1.0647
                  CHANNELS 3 Zrotation Xrotation Yrotation
                  End Site
                  {
                    OFFSET -2.48547 -0.328903 0.83742
                  }
                }
              }
              JOINT rRing1
              {
                OFFSET -8.82822 0.546677 1.51678
                CHANNELS 3 Zrotation Xrotation Yrotation
                JOINT rRing2
                {
                  OFFSET -2.60934 -0.819778 -0.0198488
                  CHANNELS 3 Zrotation Xrotation Yrotation
                  End Site
                  {
                    OFFSET -2.33842 -0.294052 0.168128
                  }
                }
              }
              JOINT rPinky1
              {
                OFFSET -8.27202 -0.0477905 -0.4584
                CHANNELS 3 Zrotation Xrotation Yrotation
                JOINT rPinky2
                {
                  OFFSET -1.82734 -0.647385 -0.700984
                  CHANNELS 3 Zrotation Xrotation Yrotation
                  End Site
                  {
                    OFFSET -1.69225 -0.51767 -0.607171
                  }
                }
              }
            }
          }
        }
      }
      JOINT lCollar
      {
        OFFSET 2.68224 19.2634 -4.8768
        CHANNELS 3 Zrotation Xrotation Yrotation
        JOINT lShldr
        {
          OFFSET 8.77824 -1.95073 1.46304
          CHANNELS 3 Zrotation Xrotation Yrotation
          JOINT lForeArm
          {
            OFFSET 28.1742 -1.7115 0.48768
            CHANNELS 3 Zrotation Xrotation Yrotation
            JOINT lHand
            {
              OFFSET 22.5879 0.773209 7.07136
              CHANNELS 3 Zrotation Xrotation Yrotation
              JOINT lThumb1
              {
                OFFSET 1.2192 -0.487915 3.41376
                CHANNELS 3 Zrotation Xrotation Yrotation
                JOINT lThumb2
                {
                  OFFSET 3.37035 -0.52449 3.41376
                  CHANNELS 3 Zrotation Xrotation Yrotation
                  End Site
                  {
                    OFFSET 1.78271 -1.18214 1.43049
                  }
                }
              }
              JOINT lIndex1
              {
                OFFSET 7.75947 0.938293 5.60832
                CHANNELS 3 Zrotation Xrotation Yrotation
                JOINT lIndex2
                {
                  OFFSET 2.54057 -0.884171 1.56538
                  CHANNELS 3 Zrotation Xrotation Yrotation
                  End Site
                  {
                    OFFSET 1.62519 -0.234802 1.16502
                  }
                }
              }
              JOINT lMid1
              {
                OFFSET 8.24714 1.18213 3.41376
                CHANNELS 3 Zrotation Xrotation Yrotation
                JOINT lMid2
                {
                  OFFSET 3.10165 -0.590103 1.0647
                  CHANNELS 3 Zrotation Xrotation Yrotation
                  End Site
                  {
                    OFFSET 2.48547 -0.328903 0.83742
                  }
                }
              }
              JOINT lRing1
              {
                OFFSET 8.82822 0.546677 1.51678
                CHANNELS 3 Zrotation Xrotation Yrotation
                JOINT lRing2
                {
                  OFFSET 2.60934 -0.819778 -0.0198488
                  CHANNELS 3 Zrotation Xrotation Yrotation
                  End Site
                  {
                    OFFSET 2.33842 -0.294052 0.168128
                  }
                }
              }
              JOINT lPinky1
              {
                OFFSET 8.27202 -0.0477905 -0.4584
                CHANNELS 3 Zrotation Xrotation Yrotation
                JOINT lPinky2
                {
                  OFFSET 1.82734 -0.647385 -0.700984
                  CHANNELS 3 Zrotation Xrotation Yrotation
                  End Site
                  {
                    OFFSET 1.69225 -0.51767 -0.607171
                  }
                }
              }
            }
          }
        }
      }
    }
  }
  JOINT rButtock
  {
    OFFSET -8.77824 4.35084 1.2192
    CHANNELS 3 Zrotation Xrotation Yrotation
    JOINT rThigh
    {
      OFFSET 0 -1.70687 -2.19456
      CHANNELS 3 Zrotation Xrotation Yrotation
      JOINT rShin
      {
        OFFSET 0 -36.8199 0.73152
        CHANNELS 3 Zrotation Xrotation Yrotation
        JOINT rFoot
        {
          OFFSET 0.73152 -45.1104 -5.12064
          CHANNELS 3 Zrotation Xrotation Yrotation
          End Site
          {
            OFFSET -1.1221 -3.69964 12.103
          }
        }
      }
    }
  }
  JOINT lButtock
  {
    OFFSET 8.77824 4.35084 1.2192
    CHANNELS 3 Zrotation Xrotation Yrotation
    JOINT lThigh
    {
      OFFSET 0 -1.70687 -2.19456
      CHANNELS 3 Zrotation Xrotation Yrotation
      JOINT lShin
      {
        OFFSET 0 -36.8199 0.73152
        CHANNELS 3 Zrotation Xrotation Yrotation
        JOINT lFoot
        {
          OFFSET -0.73152 -45.1104 -5.12064
          CHANNELS 3 Zrotation Xrotation Yrotation
          End Site
          {
            OFFSET 1.1221 -3.69964 12.103
          }
        }
      }
    }
  }
}
MOTION
Frames:	4
Frame Time:	0.03333
4.207151010632515 -11.079800873994827 13.413672894239426 -16.355579376220703 -23.744462966918945 14.563140869140625 9.98675537109375 8.449828147888184 3.518178701400757 1.3259830474853516 -7.560693740844727 1.2979083061218262 -0.7974413633346558 11.206357955932617 5.998594760894775 4.904523849487305 -23.611371994018555 12.883027076721191 -0.15171897411346436 0.1342591792345047 -0.13863298296928406 -0.029718734323978424 0.06641802936792374 -0.061204694211483 0.04310954362154007 0.01747952587902546 -0.03705919533967972 109.33653259277344 46.6434326171875 -58.01264572143555 -27.207286834716797 -43.989906311035156 90.95811462402344 -13.350849151611328 -67.58332061767578 -19.979799270629883 -0.04521717503666878 -0.13074125349521637 0.007548937574028969 -0.13518261909484863 -0.11236079782247543 -0.10605524480342865 -0.0887967199087143 0.1455686092376709 0.03029043599963188 7.693562984466553 5.454534530639648 0.5252333283424377 0.03734087944030762 0.0742199718952179 -0.09047889709472656 2.9147748947143555 1.0163359642028809 0.1966957002878189 -0.11145657300949097 -0.3077053725719452 -0.13540904223918915 10.224434852600098 0.6784821152687073 0.1091475859284401 -0.1325218826532364 0.1023249700665474 0.1484721302986145 2.2971248626708984 -0.7481302618980408 -0.2382495254278183 -0.09992505609989166 0.019298508763313293 -0.03357522934675217 -65.86507415771484 -20.6435489654541 -82.84233093261719 6.946612358093262 -2.6050479412078857 -11.821942329406738 9.047471046447754 61.89276123046875 -15.031662940979004 0.10293171554803848 -0.11109471321105957 0.006957989651709795 0.06405257433652878 0.25736916065216064 -0.08425034582614899 0.2889232933521271 -0.09932654350996017 -0.0546758770942688 -7.748470306396484 5.512697696685791 -0.3961400091648102 0.04062846302986145 -0.04245048761367798 0.08514627814292908 -2.845792055130005 0.9511919617652893 -0.046062715351581573 -0.040912434458732605 -0.07875104993581772 0.13632403314113617 -10.248047828674316 0.7218745946884155 -0.060287054628133774 0.0617731474339962 -0.05443314462900162 -0.05050480738282204 -2.2889626026153564 -0.8671101927757263 0.11645352095365524 0.11027519404888153 0.16959065198898315 0.05156675726175308 -6.244452953338623 6.53796911239624 -6.478338241577148 -0.142120823264122 32.3614501953125 2.2129788398742676 -8.73010540008545 -14.457508087158203 -33.15970993041992 0.0381152518093586 0.055775199085474014 -0.15320275723934174 70.5483627319336 -59.02797317504883 60.16480255126953 2.0075736045837402 69.9413833618164 -2.056919574737549 -0.02423159033060074 1.2048249244689941 -1.720115303993225
4.25571333616972 -11.023063212633133 13.434722553938627 -16.370471954345703 -23.604215621948242 15.057373046875 10.219554901123047 8.211424827575684 3.304943084716797 1.3095014095306396 -7.586411952972412 1.181596040725708 -0.8303556442260742 11.232693672180176 5.902358531951904 4.799961566925049 -23.52815818786621 12.604439735412598 -0.15183323621749878 0.12692928314208984 -0.143179252743721 -0.009638110175728798 0.012230963446199894 -0.02079428918659687 0.013813099823892117 0.01833292283117771 -0.03690648823976517 109.15898132324219 46.587459564208984 -57.939701080322266 -27.29033088684082 -43.85565185546875 90.73777770996094 -13.264232635498047 -67.49935913085938 -19.892763137817383 -0.07777853310108185 -0.15125809609889984 -0.008823360316455364 -0.14275296032428741 -0.08971577882766724 -0.050612494349479675 -0.12284581363201141 0.14426827430725098 0.026102006435394287 7.70847749710083 5.45115327835083 0.4894830286502838 0.017703015357255936 0.07801173627376556 -0.05591169372200966 2.878084182739258 1.068977952003479 0.2096470296382904 -0.08114586770534515 -0.2540616989135742 -0.11923699080944061 10.303823471069336 0.6848920583724976 0.12108679115772247 -0.15758608281612396 0.10985330492258072 0.15018154680728912 2.2920081615448 -0.7538787126541138 -0.2291044145822525 -0.1277575045824051 -0.010518346913158894 -0.027419889345765114 -65.59718322753906 -20.64508056640625 -82.48345947265625 6.873941898345947 -2.577059268951416 -11.713470458984375 9.184685707092285 62.08019256591797 -15.200023651123047 0.08203443139791489 -0.1663983166217804 0.0062837423756718636 0.06103190407156944 0.2377377152442932 -0.11021951586008072 0.25588369369506836 -0.10774871706962585 -0.07334348559379578 -7.788780212402344 5.558838844299316 -0.4373638927936554 0.07153995335102081 -0.025067582726478577 0.07496127486228943 -2.800419807434082 0.9533243775367737 -0.019776713103055954 -0.0065514338202774525 -0.07727330923080444 0.1434885561466217 -10.238930702209473 0.6992907524108887 -0.05329975113272667 0.07543237507343292 -0.013955186121165752 -0.04786281660199165 -2.311110019683838 -0.8597747683525085 0.1398087739944458 0.07304723560810089 0.17040397226810455 0.043008945882320404 -6.577221393585205 6.677493095397949 -6.619155406951904 -0.15361452102661133 32.126869201660156 2.2311418056488037 -8.889738082885742 -14.520733833312988 -33.55938720703125 0.04405895620584488 0.0809105858206749 -0.13446593284606934 71.48884582519531 -58.76079177856445 61.41020584106445 2.174950361251831 70.55677032470703 -2.2972426414489746 0.0025737471878528595 1.0474581718444824 -1.732012152671814
4.302537254989147 -11.059881001710892 13.447691034525633 -16.94594955444336 -24.98748779296875 13.992448806762695 10.0798921585083 7.9230241775512695 3.4142165184020996 1.440415620803833 -7.648326873779297 1.2744547128677368 -0.6623601913452148 11.250069618225098 6.0408549308776855 5.1072235107421875 -23.707006454467773 13.03494644165039 -0.1461583971977234 0.11454948037862778 -0.1533263772726059 0.015282785519957542 0.0390399768948555 -0.07781758159399033 -0.010616877116262913 -0.0461055189371109 -0.024565069004893303 109.91633605957031 47.05126190185547 -58.6457633972168 -27.377628326416016 -43.55451583862305 90.01264190673828 -14.316572189331055 -68.3033218383789 -21.032848358154297 -0.03040624037384987 -0.1531955450773239 -0.06562060117721558 -0.08548863977193832 -0.12496308982372284 -0.07198701798915863 -0.10208896547555923 0.13303494453430176 0.11217907071113586 7.712746620178223 5.4702677726745605 0.4280129671096802 0.009554668329656124 0.04156690463423729 -0.10430947691202164 2.9085230827331543 1.1004022359848022 0.21565349400043488 -0.09732020646333694 -0.3007509708404541 -0.11373953521251678 10.270770072937012 0.6695310473442078 0.07040108740329742 -0.1359810084104538 0.14145708084106445 0.28790971636772156 2.2541754245758057 -0.7793897986412048 -0.16150490939617157 -0.14285100996494293 -0.013186073862016201 -0.07132773846387863 -66.89921569824219 -21.504648208618164 -82.32713317871094 7.170825004577637 -2.732224464416504 -12.273136138916016 9.686516761779785 62.89749526977539 -15.884263038635254 0.035404838621616364 -0.1321461796760559 -0.03214021027088165 0.057610929012298584 0.22461718320846558 -0.11870019882917404 0.29444175958633423 -0.0593225359916687 -0.14335830509662628 -7.744138717651367 5.467068195343018 -0.3461361229419708 0.10992040485143661 -0.0032888068817555904 0.035390496253967285 -2.9211831092834473 0.9766164422035217 -0.052247557789087296 0.011840513907372952 -0.018687047064304352 0.15391941368579865 -10.225160598754883 0.7693995237350464 -0.03714491426944733 0.11173738539218903 -0.016748471185564995 -0.03438057377934456 -2.3594233989715576 -0.8670802116394043 0.21546509861946106 0.12119181454181671 0.18154744803905487 0.04229961335659027 -5.968546390533447 6.261173725128174 -6.7630767822265625 -0.12080170959234238 32.85919189453125 2.2107415199279785 -9.16675090789795 -14.781923294067383 -33.331024169921875 0.05748414248228073 0.04390191286802292 -0.05258471891283989 72.37525939941406 -59.02728271484375 62.3362922668457 2.2620632648468018 70.34294891357422 -2.220430612564087 -0.1562374085187912 1.8216187953948975 -1.8278136253356934
4.353109374642372 -11.095692217350006 13.466273620724678 -17.004671096801758 -24.982606887817383 13.864222526550293 9.843061447143555 7.861808776855469 3.453104019165039 1.4881396293640137 -7.648797035217285 1.3005956411361694 -0.6156635284423828 11.296878814697266 6.128499507904053 5.2194061279296875 -23.85406494140625 13.252447128295898 -0.17485693097114563 0.13304603099822998 -0.16010211408138275 -0.0342719703912735 0.055716197937726974 -0.04958436265587807 0.012528852559626102 -0.04331139847636223 0.045958030968904495 110.51732635498047 46.96989059448242 -59.121280670166016 -27.38689422607422 -43.5073356628418 89.74567413330078 -14.065179824829102 -68.12549591064453 -20.82440757751465 -0.055460382252931595 -0.13097204267978668 -0.02770935744047165 -0.07442497462034225 -0.18075929582118988 -0.0967475026845932 -0.07790814340114594 0.11302614957094193 0.08227327466011047 7.712445259094238 5.461010456085205 0.43058839440345764 0.002911861054599285 0.027602924033999443 -0.06852781027555466 2.9063448905944824 1.0844495296478271 0.20638015866279602 -0.049709711223840714 -0.32252007722854614 -0.1529850959777832 10.258780479431152 0.6927209496498108 0.032825250178575516 -0.0791313424706459 0.14378254115581512 0.2692950367927551 2.2895009517669678 -0.8237279057502747 -0.1383267045021057 -0.11791100353002548 -0.012757981196045876 -0.08219711482524872 -67.16048431396484 -21.510984420776367 -82.42706298828125 7.2270097732543945 -2.718939781188965 -12.279067993164062 9.909010887145996 63.25271987915039 -16.096525192260742 0.005373440682888031 -0.13527309894561768 -0.013220732100307941 0.08517517894506454 0.20467446744441986 -0.09345273673534393 0.27252912521362305 -0.05596403777599335 -0.10604563355445862 -7.736974716186523 5.462230682373047 -0.29610008001327515 0.073058120906353 0.03203270584344864 -0.0363919623196125 -2.9354114532470703 1.0175750255584717 -0.035377681255340576 -0.01388322003185749 0.019388820976018906 0.12359906733036041 -10.291733741760254 0.7782349586486816 -0.08157948404550552 0.14625994861125946 -0.0018408187897875905 -0.02227630466222763 -2.3436532020568848 -0.8482811450958252 0.21687465906143188 0.19085213541984558 0.17783991992473602 0.03968605026602745 -5.873782157897949 6.343934535980225 -6.624385833740234 -0.09003028273582458 32.573944091796875 2.1262457370758057 -9.125725746154785 -15.19509220123291 -33.03812026977539 0.043083880096673965 0.04855329170823097 -0.03133813291788101 72.05797576904297 -58.769683837890625 61.58834457397461 2.11226224899292 69.77315521240234 -2.0358150005340576 -0.27204859256744385 2.2025532722473145 -2.2053327560424805
